<svg width="64" height="64" viewBox="0 0 64 64" fill="none" xmlns="http://www.w3.org/2000/svg">
  <g filter="url(#filter0_d_1_2)">
    <!-- Bottom Card -->
    <rect x="18" y="12" width="36" height="48" rx="4" transform="rotate(10 36 36)" fill="white" stroke="#E5E5E5" stroke-width="1"/>
    <!-- Middle Card -->
    <rect x="14" y="10" width="36" height="48" rx="4" transform="rotate(-5 32 34)" fill="white" stroke="#E5E5E5" stroke-width="1"/>
    <!-- Top Card (Red Brand Color) -->
    <rect x="10" y="6" width="36" height="48" rx="4" fill="#C31C23"/>
    <path d="M10 6C10 3.79086 11.7909 2 14 2H42C44.2091 2 46 3.79086 46 6V50C46 52.2091 44.2091 54 42 54H14C11.7909 54 10 52.2091 10 50V6Z" stroke="white" stroke-width="2"/>
    <!-- Stylized Text Lines -->
    <rect x="18" y="20" width="20" height="3" rx="1.5" fill="white"/>
    <rect x="18" y="28" width="20" height="3" rx="1.5" fill="white" fill-opacity="0.7"/>
    <rect x="18" y="36" width="14" height="3" rx="1.5" fill="white" fill-opacity="0.4"/>
  </g>
  <defs>
    <filter id="filter0_d_1_2" x="0" y="0" width="64" height="64" filterUnits="userSpaceOnUse" color-interpolation-filters="sRGB">
      <feFlood flood-opacity="0" result="BackgroundImageFix"/>
      <feColorMatrix in="SourceAlpha" type="matrix" values="0 0 0 0 0 0 0 0 0 0 0 0 0 0 0 0 0 0 127 0" result="hardAlpha"/>
      <feOffset dy="4"/>
      <feGaussianBlur stdDeviation="2"/>
      <feComposite in2="hardAlpha" operator="out"/>
      <feColorMatrix type="matrix" values="0 0 0 0 0 0 0 0 0 0 0 0 0 0 0 0 0 0 0.1 0"/>
      <feBlend mode="normal" in2="BackgroundImageFix" result="effect1_dropShadow_1_2"/>
      <feBlend mode="normal" in="SourceGraphic" in2="effect1_dropShadow_1_2" result="shape"/>
    </filter>
  </defs>
</svg>